<svg xmlns="http://www.w3.org/2000/svg" width="1080" height="1314" viewBox="0 0 1080 1314" version="1.1">
	<path d="M 596.326 773.988 C 588.543 775.632, 584.111 778.969, 580.373 786 C 578.717 789.115, 578.485 792.360, 578.268 815.500 C 578.133 829.800, 578.443 843.288, 578.957 845.473 C 580.275 851.084, 582.189 852.131, 590.494 851.789 L 597.500 851.500 597.773 833.250 L 598.045 815 605.300 815 C 615.913 815, 619.148 811.741, 616.838 803.376 L 615.906 800 606.453 800 L 597 800 597 796.155 C 597 793.749, 597.655 791.731, 598.750 790.764 C 601.172 788.624, 607.766 787.713, 612.741 788.830 C 616.190 789.605, 617.168 789.472, 618.451 788.054 C 620.029 786.311, 620.501 781.469, 619.379 778.545 C 617.868 774.608, 605.224 772.109, 596.326 773.988 M 378.410 781.071 C 368.027 783.567, 357.503 793.403, 354.484 803.432 C 352.437 810.235, 352.602 825.175, 354.792 831.203 C 358.968 842.700, 367.256 849.808, 379.719 852.581 C 396.997 856.425, 412.510 850.526, 410.597 840.840 C 410.234 839.003, 409.286 836.640, 408.490 835.588 C 407.065 833.706, 406.978 833.706, 402.797 835.588 C 399.994 836.850, 396.306 837.499, 391.948 837.497 C 386.464 837.495, 384.660 837.041, 381.294 834.813 C 375.733 831.133, 372.994 825.213, 373.022 816.934 C 373.080 799.933, 385.722 791.523, 401.206 798.184 L 406.283 800.368 408.142 798.073 C 410.655 794.970, 410.569 788.988, 407.971 786.199 C 404.249 782.204, 399.966 780.739, 391.033 780.406 C 386.340 780.231, 380.660 780.530, 378.410 781.071 M 628.667 784.667 C 627.511 785.822, 627.919 837.168, 629.118 841.488 C 630.735 847.313, 635.775 851.604, 642.684 853.038 C 656.515 855.909, 666.548 849.817, 663.064 840.663 C 662.053 838.008, 661.726 837.871, 657.935 838.511 C 652.975 839.349, 648.182 837.573, 647.442 834.623 C 647.149 833.456, 647.043 828.675, 647.205 824 L 647.500 815.500 654.100 815 C 662.011 814.401, 664.005 813.015, 663.986 808.128 C 663.957 800.263, 663.663 800, 654.883 800 L 647 800 646.985 794.250 C 646.968 787.917, 646.536 786.844, 643.316 785.150 C 640.984 783.922, 629.781 783.553, 628.667 784.667 M 437.760 795.506 C 434.603 796.299, 430.222 797.866, 428.025 798.987 C 421.094 802.523, 420.901 803.252, 420.689 826.811 C 420.518 845.830, 420.669 847.974, 422.315 849.794 C 424.570 852.288, 429.711 853.316, 435.547 852.441 L 440 851.773 440 832.005 L 440 812.237 444.443 811.119 C 446.886 810.503, 450.400 810, 452.252 810 C 457.480 810, 459.192 808.191, 458.818 803.064 C 458.573 799.708, 457.882 798.240, 455.824 796.710 C 452.371 794.142, 445.107 793.658, 437.760 795.506 M 484.760 795.500 C 481.603 796.297, 477.225 797.865, 475.031 798.984 C 468.452 802.340, 468 804.144, 468 827.016 C 468 838.225, 468.433 847.941, 468.979 848.961 C 470.709 852.193, 478.847 853.952, 484.750 852.370 C 486.985 851.771, 487 851.638, 487 832.419 C 487 810.008, 486.138 811.711, 498.402 809.887 C 505.851 808.779, 505.962 808.719, 506.572 805.469 C 507.870 798.549, 504.534 795.132, 495.827 794.461 C 492.897 794.236, 487.917 794.703, 484.760 795.500 M 529 795.022 C 522.314 796.190, 519.298 797.616, 517.408 800.501 C 515.961 802.708, 515.886 803.675, 516.895 807.045 C 518.181 811.335, 519.150 811.687, 525.007 809.985 C 526.928 809.426, 531.554 808.935, 535.286 808.894 C 542.730 808.810, 547 810.646, 547 813.929 C 547 815.454, 546 815.933, 541.750 816.447 C 523.002 818.712, 518.604 820.322, 514.995 826.241 C 512.783 829.868, 512.345 837.136, 514.064 841.685 C 517.100 849.722, 525.399 853.480, 540 853.429 C 551.074 853.391, 558.346 851.347, 563.051 846.953 L 566.163 844.046 565.830 826.273 C 565.555 811.564, 565.192 807.939, 563.721 805.246 C 559.081 796.748, 544.199 792.365, 529 795.022 M 674.750 796.658 C 672.367 797.647, 671 798.875, 671 800.027 C 671 803.298, 677.763 825.315, 681.490 834.178 C 683.692 839.414, 686.489 844.173, 688.542 846.178 L 691.944 849.500 685.034 856.500 L 678.124 863.500 679.530 866.787 C 682.231 873.108, 691.489 874.567, 698.562 869.788 C 708 863.411, 722.991 833.176, 727.473 811.479 C 729.517 801.580, 728.921 798.665, 724.416 796.527 C 720.651 794.741, 712.803 795.235, 711.207 797.359 C 710.735 797.986, 709.594 802.100, 708.670 806.500 C 705.937 819.521, 701.637 834.046, 700.617 833.706 C 700.094 833.531, 697.952 827.339, 695.855 819.945 C 690.488 801.017, 689.304 798.209, 685.959 796.479 C 682.381 794.629, 679.533 794.674, 674.750 796.658 M 534.796 830.147 C 529.310 832.153, 530.454 838.432, 536.512 839.568 C 538.430 839.928, 541.575 839.927, 543.500 839.566 C 546.941 838.920, 547 838.825, 547 833.955 L 547 829 542.250 829.079 C 539.638 829.122, 536.283 829.603, 534.796 830.147 M 347 892.889 L 347 915 355.750 914.994 C 371.292 914.985, 376.500 911.926, 376.500 902.810 C 376.500 898.342, 376.131 897.473, 373.195 895.022 L 369.891 892.263 372.945 889.208 C 377.644 884.510, 376.883 877.741, 371.182 873.510 C 368.990 871.884, 366.534 871.453, 357.750 871.150 L 347 870.779 347 892.889 M 352.750 875.558 C 352.337 875.984, 352 879.408, 352 883.167 L 352 890 358.889 890 C 366.535 890, 369.450 888.470, 370.530 883.891 C 370.979 881.989, 370.516 880.558, 368.823 878.613 C 366.894 876.397, 365.397 875.845, 360 875.363 C 356.425 875.044, 353.163 875.132, 352.750 875.558 M 435.945 881.750 C 435.914 882.163, 435.928 887.900, 435.975 894.500 C 436.071 907.930, 436.867 910.041, 443.071 913.302 C 447.265 915.507, 453.139 915.013, 457.040 912.128 C 459.965 909.966, 461 910.237, 461 913.167 C 461 914.456, 461.742 915, 463.500 915 L 466 915 466 898 L 466 881 463.500 881 L 461 881 461 891.032 C 461 905.925, 458.679 910.038, 450.316 909.968 C 442.742 909.905, 441 906.557, 441 892.066 L 441 881 438.500 881 C 437.125 881, 435.975 881.337, 435.945 881.750 M 527 898 L 527 915 529.500 915 L 532 915 532.004 903.750 C 532.007 894.413, 532.335 891.963, 533.931 889.345 C 536.245 885.551, 540.487 884.346, 545.593 886.031 C 550.701 887.716, 552 891.455, 552 904.468 L 552 915 554.500 915 L 557 915 556.996 902.750 C 556.992 888.935, 555.786 885.492, 549.879 882.437 C 545.968 880.415, 537.850 880.921, 535.161 883.354 C 532.771 885.517, 532 885.431, 532 883 C 532 881.533, 531.333 881, 529.500 881 L 527 881 527 898 M 617 898 L 617 915 619.500 915 C 621.986 915, 622 914.949, 622.006 905.750 C 622.015 890.138, 624.462 885.500, 632.692 885.500 C 636.362 885.500, 637.610 886.008, 639.587 888.306 C 641.846 890.933, 642 891.871, 642 903.056 L 642 915 645.133 915 L 648.265 915 647.802 902.162 C 647.300 888.276, 646.472 885.943, 640.846 882.584 C 637.152 880.380, 630.203 880.579, 626.226 883.004 C 622.178 885.472, 622 885.472, 622 883 C 622 881.533, 621.333 881, 619.500 881 L 617 881 617 898 M 704 881.424 C 704 881.657, 706.417 887.619, 709.372 894.674 C 718.162 915.662, 717.813 913.761, 714.430 922.179 C 712.819 926.189, 711.338 929.850, 711.141 930.312 C 710.944 930.775, 712.058 931.007, 713.616 930.827 C 716.272 930.521, 716.881 929.460, 723.270 914 C 727.021 904.925, 731.644 894.030, 733.545 889.789 C 735.445 885.548, 737 881.835, 737 881.539 C 737 881.242, 735.763 881.010, 734.250 881.022 C 731.655 881.044, 731.224 881.763, 726.602 893.772 C 723.909 900.773, 721.371 906.878, 720.962 907.340 C 720.554 907.802, 717.854 902.065, 714.962 894.590 C 709.914 881.543, 709.590 881, 706.852 881 C 705.283 881, 704 881.191, 704 881.424 M 353.018 894.989 C 352.317 895.422, 352.016 898.419, 352.203 903.088 L 352.500 910.500 359.965 910.351 C 366.788 910.215, 367.634 909.964, 369.807 907.438 C 372.503 904.304, 372.255 899.773, 369.226 896.831 C 367.411 895.068, 355.145 893.674, 353.018 894.989" stroke="none" fill="#000000" fill-rule="evenodd"/>
</svg>